<?xml version="1.0" encoding="UTF-8"?>
<svg id="Calque_1" xmlns="http://www.w3.org/2000/svg" version="1.1" viewBox="205 406.1 932 242.6">
  <defs>
    <style>
      .st0 {
        fill: #9cff00;
      }
    </style>
  </defs>
  <polygon class="st0" points="454.5 414.1 388.9 489.3 370.9 414.5 322.2 497.9 361.6 488.6 254 616.1 308.4 616.1 334.8 534.9 369.1 591.3 453 497.2 420.9 615.9 490.5 616.1 533.1 414.1 454.5 414.1"/>
  <path class="st0" d="M270.5,535.3l90.3-120.8-73.4-.4-.9,2.7h0c-.9,2.5-2,6.8-2.6,8.7-14.6,47.2-27.7,95-41.3,142.4l-17,57.3c-.1.5-.3.9-.4,1.3v.3c0,0-4.2,13.9-4.2,13.9l91.6-119.2-42.2,13.7Z"/>
  <path class="st0" d="M600.9,461.3c-20.3,0-40,2.5-56.9,7.8l6.7,42.8c8.3-3.1,24.4-6.7,36.7-6.7s20.8,4.7,20.8,14.4-.3,5.3-1.1,7.5l-.6,1.9c-10-3.6-19.7-5.6-30.8-5.6-19.7,0-34.7,5.3-44.7,15.6-10,10-15.3,25.8-15.3,41.4,0,24.4,14.4,38.3,35.6,38.3s25.6-6.7,37.5-16.9l-3.3,13.6h58.1l20.8-85.8c1.7-7.2,2.5-14.2,2.5-20.8,0-30.3-22.2-47.5-65.8-47.5ZM599,564.1c-3.1,12.2-10.3,20.3-18.9,20.3s-9.7-3.9-9.7-11.9,2.2-12.5,6.4-16.7c3.3-3.3,7.5-5,12.8-5s8.6.8,11.9,1.9l-2.5,11.4Z"/>
  <path class="st0" d="M737,561.8c0-2.5.6-5.8,1.4-10l10-42.8h29.2l11.4-45.3h-29.2l8.9-37.2h-58.1l-8.9,37.2h-14.7l-11.1,45.3h14.4l-12.8,54.2c-1.9,6.9-2.8,12.5-2.8,18.9,0,24.7,16.7,36.7,46.9,36.7s20-1.4,29.7-4.4l11.7-46.9c-7.5,1.9-11.1,2.8-15.6,2.8-6.9,0-10.6-2.8-10.6-8.3Z"/>
  <path class="st0" d="M868.4,559.3c-6.7,6.7-12.8,10.6-20.6,10.6s-15.8-5.8-15.8-20,4.4-25.3,12.2-33.1c4.7-4.7,9.7-6.9,15.3-6.9,8.1,0,13.1,5.6,17.2,14.7l40.8-27.2c-8.6-21.4-28.3-36.9-57.2-36.9s-41.4,8.1-56.9,23.6c-20,20-28.1,47.8-28.1,71.4,0,40,27.2,63.9,65,63.9s45.8-11.1,58.9-26.7l-30.8-33.3Z"/>
  <path class="st0" d="M1067.8,499.9c0-24.2-13.1-39.7-37.5-39.7s-31.9,10.3-41.1,21.7l16.7-67.8h-58.3l-49.2,201.4h58.3l20.3-84.7c3.3-12.5,8.6-19.2,18.3-19.2s10.6,4.2,10.6,10.6-.6,6.4-1.7,10.6l-20,82.8h58.3l22.5-93.1c1.9-8.1,2.8-15.6,2.8-22.5Z"/>
  <polygon class="st0" points="1069 555.7 1054.2 615.4 1114.2 615.4 1129 555.7 1069 555.7"/>
</svg>
